<svg id="Layer_1" height="512" viewBox="0 0 512 512" width="512" xmlns="http://www.w3.org/2000/svg" data-name="Layer 1"><path d="m285.825 458.67-236.565-388.67h-22.35c-5.97 0-10.91 4.45-10.91 10.41v398.58a11.082 11.082 0 0 0 10.91 11.01h263.09z" fill="#d8c6c3"/><path d="m81.63 44h-25.59c-5.96 0-11.04 4.475-11.04 10.445v397.415a11.317 11.317 0 0 0 11.05 11.14h229.95v-34.72z" fill="#c1b5b4"/><path d="m383.27 95-82.27-84-212.58-.18c-5.97.01-10.42 5.03-10.42 10.99v399.67a10.251 10.251 0 0 0 10.42 10.52h199.58l96-194v-139.26a7.816 7.816 0 0 0 -.73-3.74z" fill="#f8e6e2"/><path d="m383.27 94.56h-45.9a36.378 36.378 0 0 1 -36.35-36.42v-46.78a10.71 10.71 0 0 1 4.96 2.9l75.06 76.92a10.98 10.98 0 0 1 2.23 3.38z" fill="#d3c3c1"/><path d="m313.14 153.39c0 .55-.01 1.09-.02 1.63l-1.12-.02h-81.73l-.64-.95.97-.66 58.28-58.28.08-.08a82.254 82.254 0 0 1 24.18 58.36z" fill="#f3ce7d"/><path d="m312 155 1.12.02a82.538 82.538 0 1 1 -130-69.15l.43.63 46.08 67.55.64.95z" fill="#5fcda4"/><path d="m288.96 95.03-.08.08-58.28 58.28-.97.66-46.08-67.55-.43-.63a82.534 82.534 0 0 1 105.84 9.16z" fill="#5fa8ed"/><path d="m283 315v161.61a24.454 24.454 0 0 0 4.11 13.18 24.784 24.784 0 0 0 20.76 11.21h162.62a24.493 24.493 0 0 0 24.51-24.39v-161.61z" fill="#6d7486"/><path d="m470.49 234h-162.62c-13.47 0-24.87 10.94-24.87 24.41v56.59h212v-56.59a24.51 24.51 0 0 0 -24.51-24.41z" fill="#4a5160"/><path d="m311.93 259.37h154.5v34.89h-154.5z" fill="#6addc7"/><path d="m446.46 334.44a18.005 18.005 0 1 1 -18 18.01 18.006 18.006 0 0 1 18-18.01z" fill="#4a5160"/><path d="m446.46 387.41a18.01 18.01 0 1 1 -18 18.01 18.012 18.012 0 0 1 18-18.01z" fill="#4a5160"/><path d="m446.46 440.39a18.005 18.005 0 1 1 -18 18 18 18 0 0 1 18-18z" fill="#4a5160"/><path d="m389.51 334.44a18.005 18.005 0 1 1 -18 18.01 18.006 18.006 0 0 1 18-18.01z" fill="#4a5160"/><path d="m389.51 387.41a18.01 18.01 0 1 1 -18 18.01 18.012 18.012 0 0 1 18-18.01z" fill="#4a5160"/><path d="m389.51 440.39a18.005 18.005 0 1 1 -18 18 18 18 0 0 1 18-18z" fill="#4a5160"/><path d="m332.56 334.44a18.005 18.005 0 1 1 -18 18.01 18.006 18.006 0 0 1 18-18.01z" fill="#4a5160"/><path d="m332.56 387.41a18.01 18.01 0 1 1 -18 18.01 18.012 18.012 0 0 1 18-18.01z" fill="#4a5160"/><path d="m332.56 440.39a18.005 18.005 0 1 1 -18 18 18 18 0 0 1 18-18z" fill="#4a5160"/><path d="m108 421.48v-399.67c0-5.8 4.224-10.7 9.958-10.965l-29.538-.025c-5.97.01-10.42 5.03-10.42 10.99v399.67a10.251 10.251 0 0 0 10.42 10.52h30a10.251 10.251 0 0 1 -10.42-10.52z" fill="#d8c6c3"/><g fill="#284268"><path d="m468 253h-155a6 6 0 0 0 -6 6v35a6 6 0 0 0 6 6h155a6 6 0 0 0 6-6v-35a6 6 0 0 0 -6-6zm-7 35h-142v-23h142z"/><path d="m333.563 482.4a24.006 24.006 0 1 0 -24.006-24.005 24.033 24.033 0 0 0 24.006 24.005zm0-36.011a12.006 12.006 0 1 1 -12.006 12.006 12.019 12.019 0 0 1 12.006-12.008z"/><path d="m390.513 482.4a24.006 24.006 0 1 0 -24.006-24.005 24.033 24.033 0 0 0 24.006 24.005zm0-36.011a12.006 12.006 0 1 1 -12.006 12.006 12.019 12.019 0 0 1 12.006-12.008z"/><path d="m447.464 482.4a24.006 24.006 0 1 0 -24.006-24.005 24.033 24.033 0 0 0 24.006 24.005zm0-36.011a12.006 12.006 0 1 1 -12.006 12.006 12.018 12.018 0 0 1 12.006-12.008z"/><path d="m333.563 429.425a24.006 24.006 0 1 0 -24.006-24.006 24.033 24.033 0 0 0 24.006 24.006zm0-36.011a12.006 12.006 0 1 1 -12.006 12 12.019 12.019 0 0 1 12.006-12z"/><path d="m390.513 429.425a24.006 24.006 0 1 0 -24.006-24.006 24.033 24.033 0 0 0 24.006 24.006zm0-36.011a12.006 12.006 0 1 1 -12.006 12 12.019 12.019 0 0 1 12.006-12z"/><path d="m447.464 429.425a24.006 24.006 0 1 0 -24.006-24.006 24.033 24.033 0 0 0 24.006 24.006zm0-36.011a12.006 12.006 0 1 1 -12.006 12 12.018 12.018 0 0 1 12.006-12z"/><path d="m333.563 376.453a24.006 24.006 0 1 0 -24.006-24.006 24.033 24.033 0 0 0 24.006 24.006zm0-36.012a12.006 12.006 0 1 1 -12.006 12.006 12.02 12.02 0 0 1 12.006-12.006z"/><path d="m390.513 376.453a24.006 24.006 0 1 0 -24.006-24.006 24.033 24.033 0 0 0 24.006 24.006zm0-36.012a12.006 12.006 0 1 1 -12.006 12.006 12.02 12.02 0 0 1 12.006-12.006z"/><path d="m447.464 376.453a24.006 24.006 0 1 0 -24.006-24.006 24.033 24.033 0 0 0 24.006 24.006zm0-36.012a12.006 12.006 0 1 1 -12.006 12.006 12.019 12.019 0 0 1 12.006-12.006z"/><path d="m222.051 309h-62.5a6 6 0 0 0 0 12h62.5a6 6 0 0 0 0-12z"/><path d="m130.985 321h6.1a6 6 0 0 0 0-12h-6.1a6 6 0 0 0 0 12z"/><path d="m213.146 360h-32.638a6 6 0 0 0 0 12h32.638a6 6 0 0 0 0-12z"/><path d="m157.066 360h-26.081a6 6 0 0 0 0 12h26.081a6 6 0 1 0 0-12z"/><path d="m107 46.806a6 6 0 0 0 -6 6v2.413a6 6 0 0 0 12 0v-2.413a6 6 0 0 0 -6-6z"/><path d="m107 72.649a6 6 0 0 0 -6 6v79.478a6 6 0 0 0 12 0v-79.478a6 6 0 0 0 -6-6z"/><path d="m230.6 64.854a88.536 88.536 0 1 0 88.536 88.536 88.636 88.636 0 0 0 -88.536-88.536zm76.4 84.146h-63.525l45.282-45.282a76.176 76.176 0 0 1 18.243 45.282zm-76.4-72.146a76.185 76.185 0 0 1 49.672 18.379l-49.643 49.643-39.068-57.276a76.056 76.056 0 0 1 39.039-10.746zm0 153.071a76.5 76.5 0 0 1 -48.843-135.409l43.557 63.865a6 6 0 0 0 4.957 2.619h76.485a76.641 76.641 0 0 1 -76.156 68.925z"/><path d="m470.609 228h-80.609v-129.261a16.68 16.68 0 0 0 -4.724-11.746l-75.021-76.919a16.817 16.817 0 0 0 -11.988-5.074h-209.855a16.513 16.513 0 0 0 -16.412 16.811v16.189h-15.962a16.761 16.761 0 0 0 -12 4.711 16.324 16.324 0 0 0 -5.038 11.655v9.634h-12.1a16.618 16.618 0 0 0 -11.933 4.733 16.3 16.3 0 0 0 -4.967 11.676v398.577a17.076 17.076 0 0 0 16.912 17.014h258.079a30.33 30.33 0 0 0 23.4 11h162.218a30.392 30.392 0 0 0 30.391-30.391v-218.218a30.392 30.392 0 0 0 -30.391-30.391zm-163.609-204.091 63.093 65.091h-32.718a30.39 30.39 0 0 1 -21.486-9.14 30.739 30.739 0 0 1 -8.889-21.721zm-256 30.45a4.407 4.407 0 0 1 1.531-3.172 4.875 4.875 0 0 1 3.518-1.187h15.951v371.472a16.25 16.25 0 0 0 16.424 16.528h189.576v19h-221.947a5.328 5.328 0 0 1 -5.053-5.146zm-24.085 429.641a5.009 5.009 0 0 1 -3.452-1.51 5.074 5.074 0 0 1 -1.463-3.507v-398.583a4.385 4.385 0 0 1 1.461-3.194 4.731 4.731 0 0 1 3.451-1.206h12.088v375.856a17.329 17.329 0 0 0 17.049 17.144h221.951v7.609a30.412 30.412 0 0 0 .91 7.391zm251.085-225.609v53.363a5.992 5.992 0 0 0 -5.041-2.754h-22.452a6 6 0 0 0 0 12h22.452a5.992 5.992 0 0 0 5.041-2.754v41.754h-41.784a6 6 0 0 0 0 12h41.784v54h-189.573a4.225 4.225 0 0 1 -3.208-1.267 4.3 4.3 0 0 1 -1.219-3.263v-399.67a4.506 4.506 0 0 1 4.424-4.8h206.576v41.136a42.779 42.779 0 0 0 42.369 42.864h40.631v127h-69.609a30.392 30.392 0 0 0 -30.391 30.391zm212 218.218a18.515 18.515 0 0 1 -18.511 18.391h-162.615c-10.141 0-18.874-8.25-18.874-18.391v-155.609h200zm0-167.609h-200v-50.588c0-10.141 8.733-18.412 18.874-18.412h162.615a18.533 18.533 0 0 1 18.511 18.412z"/></g></svg>