<?xml version="1.0" standalone="no"?>
<!DOCTYPE svg PUBLIC "-//W3C//DTD SVG 20010904//EN"
 "http://www.w3.org/TR/2001/REC-SVG-20010904/DTD/svg10.dtd">
<svg version="1.0" xmlns="http://www.w3.org/2000/svg"
 width="144.000000pt" height="144.000000pt" viewBox="0 0 144.000000 144.000000"
 preserveAspectRatio="xMidYMid meet">
<metadata>
Created by potrace 1.14, written by Peter Selinger 2001-2017
</metadata>
<g transform="translate(0.000000,144.000000) scale(0.100000,-0.100000)"
fill="#000000" stroke="none">
<path d="M422 1034 c-26 -18 -30 -65 -6 -88 8 -9 30 -16 49 -16 19 0 98 -28
183 -65 82 -36 154 -65 159 -65 6 0 24 31 41 70 27 62 29 71 16 85 -25 25 -45
17 -62 -25 -9 -22 -21 -40 -27 -40 -5 0 -65 23 -133 52 -79 33 -127 59 -134
72 -21 39 -49 46 -86 20z m63 -34 c8 -26 -1 -40 -26 -40 -22 0 -34 22 -25 45
8 22 44 18 51 -5z"/>
<path d="M625 1010 c-17 -34 -19 -33 75 -73 60 -25 66 -26 78 -10 24 33 13 47
-63 80 l-75 31 -15 -28z"/>
<path d="M940 1020 c-14 -14 -19 -29 -15 -48 3 -19 -15 -72 -61 -180 -36 -84
-64 -159 -61 -166 3 -6 35 -25 72 -41 65 -27 68 -28 81 -10 23 31 16 46 -26
63 -22 9 -40 22 -40 28 0 6 16 48 36 95 20 46 43 101 52 122 9 20 26 44 39 52
15 10 23 25 23 45 0 56 -60 80 -100 40z m68 -22 c14 -14 -2 -48 -22 -48 -20 0
-39 27 -32 45 6 18 37 20 54 3z"/>
<path d="M471 856 c-7 -9 -11 -23 -7 -31 5 -13 18 -21 73 -40 8 -3 6 -17 -7
-52 -48 -125 -93 -219 -111 -234 -30 -23 -23 -80 13 -97 20 -9 32 -10 52 -1
26 12 31 23 27 71 -1 15 25 93 58 175 34 82 61 154 61 161 0 13 -75 49 -121
59 -16 3 -30 -1 -38 -11z m14 -401 c0 -10 -8 -23 -18 -29 -25 -15 -51 17 -35
44 14 22 53 11 53 -15z"/>
<path d="M941 749 c-32 -75 -31 -91 8 -102 16 -4 25 9 50 65 17 39 31 76 31
83 0 11 -28 24 -51 25 -3 0 -20 -32 -38 -71z"/>
<path d="M431 720 c-17 -39 -31 -74 -31 -79 0 -5 13 -14 29 -19 29 -10 29 -9
60 57 36 79 37 87 12 101 -32 17 -37 13 -70 -60z"/>
<path d="M589 574 c-35 -77 -34 -98 4 -102 25 -3 30 2 44 37 9 23 20 41 24 41
5 0 28 -9 51 -19 134 -60 159 -71 168 -71 5 0 25 -16 44 -35 40 -40 67 -44 96
-15 41 41 13 100 -48 100 -30 0 -78 16 -178 60 -27 12 -65 29 -84 37 -89 39
-88 39 -121 -33z m416 -124 c0 -30 -26 -38 -49 -14 -13 13 -14 19 -5 31 20 23
54 12 54 -17z"/>
<path d="M662 517 c-17 -22 -21 -46 -9 -55 11 -8 134 -62 141 -62 6 0 29 60
25 63 -2 1 -36 17 -76 34 -52 22 -75 28 -81 20z"/>
</g>
</svg>
